<svg xmlns="http://www.w3.org/2000/svg" viewBox="0 0 839.87 270.33"><defs><style>.cls-1{fill:none;stroke:#1d1d1b;stroke-width:3px;}</style></defs><title>title</title><g id="Capa_2" data-name="Capa 2"><g id="Title"><g id="second-line"><path class="cls-1" d="M3.64,122.28H29.29v105.3H3.64Z"/><path class="cls-1" d="M105.64,182.13c0-11.4-6.3-17.7-16-17.7s-16,6.3-16,17.7v45.45H47.89v-83.7H73.54V155c5.1-7,14.1-12,25.35-12,19.35,0,32.25,13.2,32.25,35.7v48.9h-25.5Z"/><path class="cls-1" d="M151.54,165.18h-9.3v-21.3h9.3v-2.4c0-21.9,13.5-32.7,39-31.35v21.75c-9.9-.6-13.35,2.4-13.35,11.25v.75H191v21.3h-13.8v62.4H151.54Z"/><path class="cls-1" d="M241.08,228.78c-24.59,0-43.19-16.5-43.19-43.05s19.05-43,43.49-43c24.6,0,43.5,16.5,43.5,43S265.68,228.78,241.08,228.78Zm0-22.2c9.15,0,17.7-6.75,17.7-20.85s-8.4-20.85-17.4-20.85c-9.3,0-17.39,6.6-17.39,20.85S231.79,206.58,241.08,206.58Z"/><path class="cls-1" d="M330.33,142.68c12.3,0,21.3,5.55,25.8,13V143.88h25.65v83.55c0,22.35-12.9,41.4-41.85,41.4-24.9,0-41.1-12.6-43.35-32.55h25.35c1.65,6.3,7.95,10.35,16.8,10.35,9.75,0,17.4-5.1,17.4-19.2V215.58c-4.65,7.35-13.5,13.2-25.8,13.2-20.55,0-36.89-16.8-36.89-43.2S309.78,142.68,330.33,142.68Zm7.5,22.35c-9.6,0-18.3,7.2-18.3,20.55s8.7,20.85,18.3,20.85c9.75,0,18.3-7.35,18.3-20.7S347.58,165,337.83,165Z"/><path class="cls-1" d="M426,227.58H400.38v-83.7H426v14C431.88,149,441,143,452.28,143v27.15h-7c-12.15,0-19.2,4.2-19.2,18.6Z"/><path class="cls-1" d="M496.38,142.68c12.45,0,21.3,5.7,25.8,13V143.88h25.65v83.7H522.18V215.73c-4.65,7.35-13.5,13.05-25.95,13.05-20.4,0-36.75-16.8-36.75-43.2S475.83,142.68,496.38,142.68Zm7.5,22.35c-9.6,0-18.3,7.2-18.3,20.55s8.7,20.85,18.3,20.85,18.3-7.35,18.3-20.7S513.63,165,503.88,165Z"/><path class="cls-1" d="M569,165.18h-9.3v-21.3H569v-2.4c0-21.9,13.5-32.7,39-31.35v21.75c-9.9-.6-13.35,2.4-13.35,11.25v.75h13.8v21.3h-13.8v62.4H569Z"/><path class="cls-1" d="M652.68,103.08v20l-36.15,15.15v-17.7Zm-30.3,40.8H648v83.7H622.38Z"/><path class="cls-1" d="M700.38,142.68c12.45,0,21.3,5.7,25.8,13V143.88h25.64v83.7H726.18V215.73c-4.65,7.35-13.5,13.05-25.95,13.05-20.4,0-36.75-16.8-36.75-43.2S679.83,142.68,700.38,142.68Zm7.5,22.35c-9.6,0-18.3,7.2-18.3,20.55s8.7,20.85,18.3,20.85,18.3-7.35,18.3-20.7S717.63,165,707.88,165Z"/><path class="cls-1" d="M804.47,228.78c-22.34,0-37.34-12.45-38.54-28.65h25.34c.61,5.85,5.85,9.75,12.9,9.75,6.6,0,10.05-3,10.05-6.75,0-13.5-45.59-3.75-45.59-34.5,0-14.25,12.15-25.95,34-25.95,21.6,0,33.6,12,35.25,28.5h-23.7c-.75-5.7-5.1-9.45-12.3-9.45-6,0-9.29,2.4-9.29,6.45,0,13.35,45.29,3.9,45.74,35.1C838.37,217.83,825.47,228.78,804.47,228.78Z"/></g><g id="first-line"><path class="cls-1" d="M1.5,1.5H50.37V13.83H33.63V64.68H18.24V13.83H1.5Z"/><path class="cls-1" d="M107.7,64.68H92.31V57.84A18.3,18.3,0,0,1,77.1,65.22c-11.61,0-19.44-8-19.44-21.42V14.46H73V41.73c0,6.84,3.87,10.62,9.63,10.62,5.94,0,9.72-3.78,9.72-10.62V14.46H107.7Z"/><path class="cls-1" d="M139.2,65.4c-13.41,0-22.41-7.47-23.13-17.19h15.21c.36,3.51,3.51,5.85,7.74,5.85,4,0,6-1.8,6-4.05,0-8.1-27.36-2.25-27.36-20.7,0-8.55,7.29-15.57,20.43-15.57,13,0,20.16,7.2,21.15,17.1H145.05c-.45-3.42-3.06-5.67-7.38-5.67-3.6,0-5.58,1.44-5.58,3.87,0,8,27.18,2.34,27.45,21.06C159.54,58.83,151.8,65.4,139.2,65.4Z"/></g></g></g></svg>